<?xml version="1.0" encoding="utf-8" standalone="no"?>
<!DOCTYPE svg PUBLIC "-//W3C//DTD SVG 1.1//EN"
  "http://www.w3.org/Graphics/SVG/1.1/DTD/svg11.dtd">
<svg xmlns:xlink="http://www.w3.org/1999/xlink" width="453.2pt" height="489.2pt" viewBox="0 0 453.2 489.2" xmlns="http://www.w3.org/2000/svg" version="1.1">
 <metadata>
  <rdf:RDF xmlns:dc="http://purl.org/dc/elements/1.1/" xmlns:cc="http://creativecommons.org/ns#" xmlns:rdf="http://www.w3.org/1999/02/22-rdf-syntax-ns#">
   <cc:Work>
    <dc:type rdf:resource="http://purl.org/dc/dcmitype/StillImage"/>
    <dc:date>2026-09-23T22:45:24.554060</dc:date>
    <dc:format>image/svg+xml</dc:format>
    <dc:creator>
     <cc:Agent>
      <dc:title>Matplotlib v3.10.0, https://matplotlib.org/</dc:title>
     </cc:Agent>
    </dc:creator>
   </cc:Work>
  </rdf:RDF>
 </metadata>
 <defs>
  <style type="text/css">*{stroke-linejoin: round; stroke-linecap: butt}</style>
 </defs>
 <g id="figure_1">
  <g id="patch_1">
   <path d="M -0 489.2 
L 453.2 489.2 
L 453.2 0 
L -0 0 
z
" style="fill: #ffffff"/>
  </g>
  <g id="axes_1">
   <g id="patch_2">
    <path d="M 120.452 74.936 
L 332.748 74.936 
Q 341.668 74.936 341.668 65.296 
L 341.668 33.484 
Q 341.668 23.844 332.748 23.844 
L 120.452 23.844 
Q 111.532 23.844 111.532 33.484 
L 111.532 65.296 
Q 111.532 74.936 120.452 74.936 
z
" clip-path="url(#p5bca686712)" style="fill: #e3eee9; stroke: #536676; stroke-linejoin: miter"/>
   </g>
   <g id="patch_3">
    <path d="M 115.1 133.74 
L 338.1 133.74 
L 338.1 90.36 
L 115.1 90.36 
z
" clip-path="url(#p5bca686712)" style="fill: #edf2f5; stroke: #536676; stroke-linejoin: miter"/>
   </g>
   <g id="patch_4">
    <path d="M 115.1 196.4 
L 338.1 196.4 
L 338.1 153.02 
L 115.1 153.02 
z
" clip-path="url(#p5bca686712)" style="fill: #edf2f5; stroke: #536676; stroke-linejoin: miter"/>
   </g>
   <g id="patch_5">
    <path d="M 115.1 259.06 
L 338.1 259.06 
L 338.1 215.68 
L 115.1 215.68 
z
" clip-path="url(#p5bca686712)" style="fill: #edf2f5; stroke: #536676; stroke-linejoin: miter"/>
   </g>
   <g id="patch_6">
    <path d="M 115.1 321.72 
L 338.1 321.72 
L 338.1 278.34 
L 115.1 278.34 
z
" clip-path="url(#p5bca686712)" style="fill: #edf2f5; stroke: #536676; stroke-linejoin: miter"/>
   </g>
   <g id="patch_7">
    <path d="M 226.6 341 
L 338.1 362.69 
L 226.6 384.38 
L 115.1 362.69 
z
" clip-path="url(#p5bca686712)" style="fill: #e8eef3; stroke: #536676; stroke-linejoin: miter"/>
   </g>
   <g id="patch_8">
    <path d="M 120.452 450.896 
L 332.748 450.896 
Q 341.668 450.896 341.668 441.256 
L 341.668 409.444 
Q 341.668 399.804 332.748 399.804 
L 120.452 399.804 
Q 111.532 399.804 111.532 409.444 
L 111.532 441.256 
Q 111.532 450.896 120.452 450.896 
z
" clip-path="url(#p5bca686712)" style="fill: #e3eee9; stroke: #536676; stroke-linejoin: miter"/>
   </g>
   <g id="patch_9">
    <path d="M 226.6 76.938371 
Q 226.6 80.719317 226.6 83.382228 
" clip-path="url(#p5bca686712)" style="fill: none; stroke: #536676; stroke-linecap: round"/>
    <path d="M 228.8 78.982228 
L 226.6 83.382228 
L 224.4 78.982228 
z
" clip-path="url(#p5bca686712)" style="fill: #536676; stroke: #536676; stroke-linecap: round"/>
   </g>
   <g id="patch_10">
    <path d="M 226.6 139.598371 
Q 226.6 143.379317 226.6 146.042228 
" clip-path="url(#p5bca686712)" style="fill: none; stroke: #536676; stroke-linecap: round"/>
    <path d="M 228.8 141.642228 
L 226.6 146.042228 
L 224.4 141.642228 
z
" clip-path="url(#p5bca686712)" style="fill: #536676; stroke: #536676; stroke-linecap: round"/>
   </g>
   <g id="patch_11">
    <path d="M 226.6 202.258371 
Q 226.6 206.039317 226.6 208.702228 
" clip-path="url(#p5bca686712)" style="fill: none; stroke: #536676; stroke-linecap: round"/>
    <path d="M 228.8 204.302228 
L 226.6 208.702228 
L 224.4 204.302228 
z
" clip-path="url(#p5bca686712)" style="fill: #536676; stroke: #536676; stroke-linecap: round"/>
   </g>
   <g id="patch_12">
    <path d="M 226.6 264.918371 
Q 226.6 268.699317 226.6 271.362228 
" clip-path="url(#p5bca686712)" style="fill: none; stroke: #536676; stroke-linecap: round"/>
    <path d="M 228.8 266.962228 
L 226.6 271.362228 
L 224.4 266.962228 
z
" clip-path="url(#p5bca686712)" style="fill: #536676; stroke: #536676; stroke-linecap: round"/>
   </g>
   <g id="patch_13">
    <path d="M 226.6 327.578371 
Q 226.6 331.359317 226.6 334.022228 
" clip-path="url(#p5bca686712)" style="fill: none; stroke: #536676; stroke-linecap: round"/>
    <path d="M 228.8 329.622228 
L 226.6 334.022228 
L 224.4 329.622228 
z
" clip-path="url(#p5bca686712)" style="fill: #536676; stroke: #536676; stroke-linecap: round"/>
   </g>
   <g id="patch_14">
    <path d="M 226.6 390.238371 
Q 226.6 394.019317 226.6 396.682228 
" clip-path="url(#p5bca686712)" style="fill: none; stroke: #536676; stroke-linecap: round"/>
    <path d="M 228.8 392.282228 
L 226.6 396.682228 
L 224.4 392.282228 
z
" clip-path="url(#p5bca686712)" style="fill: #536676; stroke: #536676; stroke-linecap: round"/>
   </g>
   <g id="text_1">
    <text style="font-size: 8px; font-family: 'DejaVu Sans', 'Bitstream Vera Sans', 'Computer Modern Sans Serif', 'Lucida Grande', 'Verdana', 'Geneva', 'Lucid', 'Arial', 'Helvetica', 'Avant Garde', sans-serif; text-anchor: middle" x="226.6" y="51.593125" transform="rotate(-0 226.6 51.593125)">真实箱号、机型、电池与航段</text>
   </g>
   <g id="text_2">
    <text style="font-size: 8px; font-family: 'DejaVu Sans', 'Bitstream Vera Sans', 'Computer Modern Sans Serif', 'Lucida Grande', 'Verdana', 'Geneva', 'Lucid', 'Arial', 'Helvetica', 'Avant Garde', sans-serif; text-anchor: middle" x="226.6" y="114.253125" transform="rotate(-0 226.6 114.253125)">参考访问结构 + 逐箱 MILP 热启动</text>
   </g>
   <g id="text_3">
    <text style="font-size: 8px; font-family: 'DejaVu Sans', 'Bitstream Vera Sans', 'Computer Modern Sans Serif', 'Lucida Grande', 'Verdana', 'Geneva', 'Lucid', 'Arial', 'Helvetica', 'Avant Garde', sans-serif; text-anchor: middle" x="226.6" y="176.913125" transform="rotate(-0 226.6 176.913125)">逐段载荷、能耗与交付时刻</text>
   </g>
   <g id="text_4">
    <text style="font-size: 8px; font-family: 'DejaVu Sans', 'Bitstream Vera Sans', 'Computer Modern Sans Serif', 'Lucida Grande', 'Verdana', 'Geneva', 'Lucid', 'Arial', 'Helvetica', 'Avant Garde', sans-serif; text-anchor: middle" x="226.6" y="239.573125" transform="rotate(-0 226.6 239.573125)">实体无人机/电池最早可用解码</text>
   </g>
   <g id="text_5">
    <text style="font-size: 8px; font-family: 'DejaVu Sans', 'Bitstream Vera Sans', 'Computer Modern Sans Serif', 'Lucida Grande', 'Verdana', 'Geneva', 'Lucid', 'Arial', 'Helvetica', 'Avant Garde', sans-serif; text-anchor: middle" x="226.6" y="302.233125" transform="rotate(-0 226.6 302.233125)">自适应移除重插与邻域搜索</text>
   </g>
   <g id="text_6">
    <text style="font-size: 8px; font-family: 'DejaVu Sans', 'Bitstream Vera Sans', 'Computer Modern Sans Serif', 'Lucida Grande', 'Verdana', 'Geneva', 'Lucid', 'Arial', 'Helvetica', 'Avant Garde', sans-serif; text-anchor: middle" x="226.6" y="364.893125" transform="rotate(-0 226.6 364.893125)">独立复算 80 箱与资源区间</text>
   </g>
   <g id="text_7">
    <text style="font-size: 8px; font-family: 'DejaVu Sans', 'Bitstream Vera Sans', 'Computer Modern Sans Serif', 'Lucida Grande', 'Verdana', 'Geneva', 'Lucid', 'Arial', 'Helvetica', 'Avant Garde', sans-serif; text-anchor: middle" x="226.6" y="427.553125" transform="rotate(-0 226.6 427.553125)">主方案、权衡表、Q2 模板</text>
   </g>
  </g>
 </g>
 <defs>
  <clipPath id="p5bca686712">
   <rect x="3.6" y="3.6" width="446" height="482"/>
  </clipPath>
 </defs>
</svg>
